<svg width="300" height="84" viewBox="0 0 300 84" fill="none" xmlns="http://www.w3.org/2000/svg">
<path d="M42.0004 58.9255L81.4929 81.4927H2.50781L42.0004 58.9255Z" fill="#191A20"/>
<path d="M42.0007 23.821C43.6137 31.7126 49.7809 37.8797 57.6724 39.4927C49.7809 41.1057 43.6137 47.2728 42.0007 55.1643C40.3878 47.2728 34.2206 41.1057 26.3291 39.4927C34.2206 37.8797 40.3878 31.7126 42.0007 23.821Z" fill="url(#paint0_linear_1680_94)"/>
<path fill-rule="evenodd" clip-rule="evenodd" d="M2.50781 42.0001C2.50781 20.189 20.1892 2.50757 42.0004 2.50757C63.8115 2.50757 81.4929 20.189 81.4929 42.0001V72.7165L71.463 67.0747V42.0001C71.463 25.7283 58.2721 12.5374 42.0004 12.5374C25.7286 12.5374 12.5377 25.7283 12.5377 42.0001V67.0747L2.50781 72.7165V42.0001Z" fill="#191A20"/>
<path d="M109.462 62.3852H101.553V21.2377H108.705L109.547 27.5487C112.155 22.8365 117.372 20.0597 123.178 20.0597C134.033 20.0597 138.998 26.7072 138.998 37.2255V62.3852H131.088V38.9926C131.088 30.6621 127.217 27.2963 121.159 27.2963C113.754 27.2963 109.462 32.5975 109.462 40.5913V62.3852Z" fill="#191A20"/>
<path d="M164.342 63.3949C152.225 63.3949 143.895 54.6437 143.895 41.8535C143.895 28.9792 152.057 20.0597 164.006 20.0597C175.702 20.0597 183.359 28.1377 183.359 40.3389V43.284L151.552 43.3681C152.141 52.0352 156.685 56.8315 164.51 56.8315C170.653 56.8315 174.692 54.3071 176.038 49.595H183.443C181.424 58.4303 174.524 63.3949 164.342 63.3949ZM164.006 26.7072C157.106 26.7072 152.73 30.8304 151.72 38.0669H175.449C175.449 31.2511 170.99 26.7072 164.006 26.7072Z" fill="#191A20"/>
<path d="M217.269 21.2377H225.095V62.3852H218.027L217.185 56.1583C214.829 60.4498 209.36 63.3949 203.301 63.3949C193.708 63.3949 188.323 56.9157 188.323 46.8181V21.2377H196.233V44.2096C196.233 53.0449 200.019 56.4108 206.078 56.4108C213.314 56.4108 217.269 51.7828 217.269 42.9474V21.2377Z" fill="#191A20"/>
<path d="M256.766 20.9012V28.1377H253.232C245.743 28.1377 241.115 32.6816 241.115 40.5913V62.3852H233.205V21.3219H240.61L241.115 27.5487C242.798 23.2572 246.921 20.3963 252.559 20.3963C253.989 20.3963 255.167 20.5646 256.766 20.9012Z" fill="#191A20"/>
<path d="M277.095 63.3949C264.978 63.3949 256.647 54.6437 256.647 41.8535C256.647 28.9792 264.809 20.0597 276.758 20.0597C288.454 20.0597 296.112 28.1377 296.112 40.3389V43.284L264.304 43.3681C264.893 52.0352 269.437 56.8315 277.263 56.8315C283.405 56.8315 287.445 54.3071 288.791 49.595H296.196C294.176 58.4303 287.276 63.3949 277.095 63.3949ZM276.758 26.7072C269.858 26.7072 265.482 30.8304 264.473 38.0669H288.202C288.202 31.2511 283.742 26.7072 276.758 26.7072Z" fill="#191A20"/>
<defs>
<linearGradient id="paint0_linear_1680_94" x1="42.0007" y1="56.587" x2="42.0007" y2="20.5598" gradientUnits="userSpaceOnUse">
<stop offset="0.063424" stop-color="#444AFA"/>
<stop offset="0.65" stop-color="#00D885"/>
</linearGradient>
</defs>
</svg>
